<svg width="48" height="19" viewBox="0 0 48 19" fill="none" xmlns="http://www.w3.org/2000/svg">
<path d="M15.9176 6.65625H12.1847C12.1165 6.1733 11.9773 5.74432 11.767 5.36932C11.5568 4.98864 11.2869 4.66477 10.9574 4.39773C10.6278 4.13068 10.2472 3.92614 9.81534 3.78409C9.3892 3.64205 8.92614 3.57102 8.42614 3.57102C7.52273 3.57102 6.7358 3.79545 6.06534 4.24432C5.39489 4.6875 4.875 5.33523 4.50568 6.1875C4.13636 7.03409 3.9517 8.0625 3.9517 9.27273C3.9517 10.517 4.13636 11.5625 4.50568 12.4091C4.88068 13.2557 5.40341 13.8949 6.07386 14.3267C6.74432 14.7585 7.51989 14.9744 8.40057 14.9744C8.89489 14.9744 9.35227 14.9091 9.77273 14.7784C10.1989 14.6477 10.5767 14.4574 10.9062 14.2074C11.2358 13.9517 11.5085 13.642 11.7244 13.2784C11.946 12.9148 12.0994 12.5 12.1847 12.0341L15.9176 12.0511C15.821 12.8523 15.5795 13.625 15.1932 14.3693C14.8125 15.108 14.2983 15.7699 13.6506 16.3551C13.0085 16.9347 12.2415 17.3949 11.3494 17.7358C10.4631 18.071 9.46023 18.2386 8.34091 18.2386C6.78409 18.2386 5.39205 17.8864 4.16477 17.1818C2.94318 16.4773 1.97727 15.4574 1.26705 14.1222C0.5625 12.7869 0.210227 11.1705 0.210227 9.27273C0.210227 7.36932 0.568182 5.75 1.28409 4.41477C2 3.07955 2.97159 2.0625 4.19886 1.36364C5.42614 0.659091 6.80682 0.306818 8.34091 0.306818C9.35227 0.306818 10.2898 0.448863 11.1534 0.732954C12.0227 1.01705 12.7926 1.43182 13.4631 1.97727C14.1335 2.51704 14.679 3.17898 15.0994 3.96307C15.5256 4.74716 15.7983 5.64489 15.9176 6.65625ZM18.5639 18V0.545454H25.5526C26.8366 0.545454 27.9077 0.735795 28.7656 1.11648C29.6236 1.49716 30.2685 2.02557 30.7003 2.7017C31.1321 3.37216 31.348 4.14489 31.348 5.01989C31.348 5.7017 31.2116 6.30114 30.9389 6.81818C30.6662 7.32955 30.2912 7.75 29.8139 8.07955C29.3423 8.40341 28.8026 8.63352 28.1946 8.76989V8.94034C28.8594 8.96875 29.4815 9.15625 30.0611 9.50284C30.6463 9.84943 31.1207 10.3352 31.4844 10.9602C31.848 11.5795 32.0298 12.3182 32.0298 13.1761C32.0298 14.1023 31.7997 14.929 31.3395 15.6562C30.8849 16.3778 30.2116 16.9489 29.3196 17.3693C28.4276 17.7898 27.3281 18 26.0213 18H18.5639ZM22.2543 14.983H25.2628C26.2912 14.983 27.0412 14.7869 27.5128 14.3949C27.9844 13.9972 28.2202 13.4687 28.2202 12.8097C28.2202 12.3267 28.1037 11.9006 27.8707 11.5312C27.6378 11.1619 27.3054 10.8722 26.8736 10.6619C26.4474 10.4517 25.9389 10.3466 25.348 10.3466H22.2543V14.983ZM22.2543 7.84943H24.9901C25.4957 7.84943 25.9446 7.76136 26.3366 7.58523C26.7344 7.40341 27.0469 7.14773 27.2741 6.81818C27.5071 6.48864 27.6236 6.09375 27.6236 5.63352C27.6236 5.00284 27.3991 4.49432 26.9503 4.10795C26.5071 3.72159 25.8764 3.52841 25.0582 3.52841H22.2543V7.84943ZM43.8999 5.56534C43.8317 4.87784 43.5391 4.34375 43.022 3.96307C42.505 3.58239 41.8033 3.39204 40.9169 3.39204C40.3146 3.39204 39.8061 3.47727 39.3913 3.64773C38.9766 3.8125 38.6584 4.04261 38.4368 4.33807C38.2209 4.63352 38.1129 4.96875 38.1129 5.34375C38.1016 5.65625 38.1669 5.92898 38.3089 6.16193C38.4567 6.39489 38.6584 6.59659 38.9141 6.76705C39.1697 6.93182 39.4652 7.0767 39.8004 7.2017C40.1357 7.32102 40.4936 7.4233 40.8743 7.50852L42.4425 7.88352C43.2038 8.05398 43.9027 8.28125 44.5391 8.56534C45.1754 8.84943 45.7266 9.19886 46.1925 9.61364C46.6584 10.0284 47.0192 10.517 47.2749 11.0795C47.5362 11.642 47.6697 12.2869 47.6754 13.0142C47.6697 14.0824 47.397 15.0085 46.8572 15.7926C46.3232 16.571 45.5504 17.1761 44.5391 17.608C43.5334 18.0341 42.3203 18.2472 40.8999 18.2472C39.4908 18.2472 38.2635 18.0312 37.218 17.5994C36.1783 17.1676 35.3658 16.5284 34.7805 15.6818C34.201 14.8295 33.897 13.7756 33.8686 12.5199H37.4396C37.4794 13.1051 37.647 13.5937 37.9425 13.9858C38.2436 14.3722 38.6442 14.6648 39.1442 14.8636C39.6499 15.0568 40.2209 15.1534 40.8572 15.1534C41.4822 15.1534 42.0249 15.0625 42.4851 14.8807C42.951 14.6989 43.3118 14.446 43.5675 14.1222C43.8232 13.7983 43.951 13.4261 43.951 13.0057C43.951 12.6136 43.8345 12.2841 43.6016 12.017C43.3743 11.75 43.0391 11.5227 42.5959 11.3352C42.1584 11.1477 41.6214 10.9773 40.9851 10.8239L39.0845 10.3466C37.6129 9.98864 36.451 9.42898 35.5987 8.66761C34.7464 7.90625 34.3232 6.88068 34.3288 5.59091C34.3232 4.53409 34.6044 3.6108 35.1726 2.82102C35.7464 2.03125 36.5334 1.41477 37.5334 0.971591C38.5334 0.528409 39.6697 0.306818 40.9425 0.306818C42.2379 0.306818 43.3686 0.528409 44.3345 0.971591C45.3061 1.41477 46.0618 2.03125 46.6016 2.82102C47.1413 3.6108 47.4197 4.52557 47.4368 5.56534H43.8999Z" fill="#C6AB5B"/>
</svg>
