<svg width="224" height="24" viewBox="0 0 224 24" fill="none" xmlns="http://www.w3.org/2000/svg">
<path d="M15.9176 7.65625H12.1847C12.1165 7.1733 11.9773 6.74432 11.767 6.36932C11.5568 5.98864 11.2869 5.66477 10.9574 5.39773C10.6278 5.13068 10.2472 4.92614 9.81534 4.78409C9.3892 4.64205 8.92614 4.57102 8.42614 4.57102C7.52273 4.57102 6.7358 4.79545 6.06534 5.24432C5.39489 5.6875 4.875 6.33523 4.50568 7.1875C4.13636 8.03409 3.9517 9.0625 3.9517 10.2727C3.9517 11.517 4.13636 12.5625 4.50568 13.4091C4.88068 14.2557 5.40341 14.8949 6.07386 15.3267C6.74432 15.7585 7.51989 15.9744 8.40057 15.9744C8.89489 15.9744 9.35227 15.9091 9.77273 15.7784C10.1989 15.6477 10.5767 15.4574 10.9062 15.2074C11.2358 14.9517 11.5085 14.642 11.7244 14.2784C11.946 13.9148 12.0994 13.5 12.1847 13.0341L15.9176 13.0511C15.821 13.8523 15.5795 14.625 15.1932 15.3693C14.8125 16.108 14.2983 16.7699 13.6506 17.3551C13.0085 17.9347 12.2415 18.3949 11.3494 18.7358C10.4631 19.071 9.46023 19.2386 8.34091 19.2386C6.78409 19.2386 5.39205 18.8864 4.16477 18.1818C2.94318 17.4773 1.97727 16.4574 1.26705 15.1222C0.5625 13.7869 0.210227 12.1705 0.210227 10.2727C0.210227 8.36932 0.568182 6.75 1.28409 5.41477C2 4.07955 2.97159 3.0625 4.19886 2.36364C5.42614 1.65909 6.80682 1.30682 8.34091 1.30682C9.35227 1.30682 10.2898 1.44886 11.1534 1.73295C12.0227 2.01705 12.7926 2.43182 13.4631 2.97727C14.1335 3.51704 14.679 4.17898 15.0994 4.96307C15.5256 5.74716 15.7983 6.64489 15.9176 7.65625ZM18.5639 19V1.54545H25.5526C26.8366 1.54545 27.9077 1.7358 28.7656 2.11648C29.6236 2.49716 30.2685 3.02557 30.7003 3.7017C31.1321 4.37216 31.348 5.14489 31.348 6.01989C31.348 6.7017 31.2116 7.30114 30.9389 7.81818C30.6662 8.32955 30.2912 8.75 29.8139 9.07955C29.3423 9.40341 28.8026 9.63352 28.1946 9.76989V9.94034C28.8594 9.96875 29.4815 10.1562 30.0611 10.5028C30.6463 10.8494 31.1207 11.3352 31.4844 11.9602C31.848 12.5795 32.0298 13.3182 32.0298 14.1761C32.0298 15.1023 31.7997 15.929 31.3395 16.6562C30.8849 17.3778 30.2116 17.9489 29.3196 18.3693C28.4276 18.7898 27.3281 19 26.0213 19H18.5639ZM22.2543 15.983H25.2628C26.2912 15.983 27.0412 15.7869 27.5128 15.3949C27.9844 14.9972 28.2202 14.4687 28.2202 13.8097C28.2202 13.3267 28.1037 12.9006 27.8707 12.5312C27.6378 12.1619 27.3054 11.8722 26.8736 11.6619C26.4474 11.4517 25.9389 11.3466 25.348 11.3466H22.2543V15.983ZM22.2543 8.84943H24.9901C25.4957 8.84943 25.9446 8.76136 26.3366 8.58523C26.7344 8.40341 27.0469 8.14773 27.2741 7.81818C27.5071 7.48864 27.6236 7.09375 27.6236 6.63352C27.6236 6.00284 27.3991 5.49432 26.9503 5.10795C26.5071 4.72159 25.8764 4.52841 25.0582 4.52841H22.2543V8.84943ZM43.8999 6.56534C43.8317 5.87784 43.5391 5.34375 43.022 4.96307C42.505 4.58239 41.8033 4.39204 40.9169 4.39204C40.3146 4.39204 39.8061 4.47727 39.3913 4.64773C38.9766 4.8125 38.6584 5.04261 38.4368 5.33807C38.2209 5.63352 38.1129 5.96875 38.1129 6.34375C38.1016 6.65625 38.1669 6.92898 38.3089 7.16193C38.4567 7.39489 38.6584 7.59659 38.9141 7.76705C39.1697 7.93182 39.4652 8.0767 39.8004 8.2017C40.1357 8.32102 40.4936 8.4233 40.8743 8.50852L42.4425 8.88352C43.2038 9.05398 43.9027 9.28125 44.5391 9.56534C45.1754 9.84943 45.7266 10.1989 46.1925 10.6136C46.6584 11.0284 47.0192 11.517 47.2749 12.0795C47.5362 12.642 47.6697 13.2869 47.6754 14.0142C47.6697 15.0824 47.397 16.0085 46.8572 16.7926C46.3232 17.571 45.5504 18.1761 44.5391 18.608C43.5334 19.0341 42.3203 19.2472 40.8999 19.2472C39.4908 19.2472 38.2635 19.0312 37.218 18.5994C36.1783 18.1676 35.3658 17.5284 34.7805 16.6818C34.201 15.8295 33.897 14.7756 33.8686 13.5199H37.4396C37.4794 14.1051 37.647 14.5937 37.9425 14.9858C38.2436 15.3722 38.6442 15.6648 39.1442 15.8636C39.6499 16.0568 40.2209 16.1534 40.8572 16.1534C41.4822 16.1534 42.0249 16.0625 42.4851 15.8807C42.951 15.6989 43.3118 15.446 43.5675 15.1222C43.8232 14.7983 43.951 14.4261 43.951 14.0057C43.951 13.6136 43.8345 13.2841 43.6016 13.017C43.3743 12.75 43.0391 12.5227 42.5959 12.3352C42.1584 12.1477 41.6214 11.9773 40.9851 11.8239L39.0845 11.3466C37.6129 10.9886 36.451 10.429 35.5987 9.66761C34.7464 8.90625 34.3232 7.88068 34.3288 6.59091C34.3232 5.53409 34.6044 4.6108 35.1726 3.82102C35.7464 3.03125 36.5334 2.41477 37.5334 1.97159C38.5334 1.52841 39.6697 1.30682 40.9425 1.30682C42.2379 1.30682 43.3686 1.52841 44.3345 1.97159C45.3061 2.41477 46.0618 3.03125 46.6016 3.82102C47.1413 4.6108 47.4197 5.52557 47.4368 6.56534H43.8999Z" fill="#C6AB5B"/>
<path d="M55.7124 19V1.54545H67.2692V4.58807H59.4027V8.74716H66.5021V11.7898H59.4027V19H55.7124ZM69.6832 19V5.90909H73.3139V19H69.6832ZM71.5071 4.22159C70.9673 4.22159 70.5043 4.04261 70.1179 3.68466C69.7372 3.32102 69.5469 2.88636 69.5469 2.38068C69.5469 1.88068 69.7372 1.4517 70.1179 1.09375C70.5043 0.730113 70.9673 0.548295 71.5071 0.548295C72.0469 0.548295 72.5071 0.730113 72.8878 1.09375C73.2741 1.4517 73.4673 1.88068 73.4673 2.38068C73.4673 2.88636 73.2741 3.32102 72.8878 3.68466C72.5071 4.04261 72.0469 4.22159 71.5071 4.22159ZM79.853 11.4318V19H76.2223V5.90909H79.6825V8.21875H79.8359C80.1257 7.45739 80.6115 6.85511 81.2933 6.41193C81.9751 5.96307 82.8018 5.73864 83.7734 5.73864C84.6825 5.73864 85.4751 5.9375 86.1513 6.33523C86.8274 6.73295 87.353 7.30114 87.728 8.03977C88.103 8.77273 88.2905 9.64773 88.2905 10.6648V19H84.6598V11.3125C84.6655 10.5114 84.4609 9.88636 84.0462 9.4375C83.6314 8.98295 83.0604 8.75568 82.3331 8.75568C81.8445 8.75568 81.4126 8.8608 81.0376 9.07102C80.6683 9.28125 80.3786 9.58807 80.1683 9.99148C79.9638 10.3892 79.8587 10.8693 79.853 11.4318ZM94.8849 19.2472C94.0497 19.2472 93.3054 19.1023 92.652 18.8125C91.9986 18.517 91.4815 18.0824 91.1009 17.5085C90.7259 16.929 90.5384 16.2074 90.5384 15.3438C90.5384 14.6165 90.6719 14.0057 90.9389 13.5114C91.206 13.017 91.5696 12.6193 92.0298 12.3182C92.4901 12.017 93.0128 11.7898 93.598 11.6364C94.1889 11.483 94.8082 11.375 95.456 11.3125C96.2173 11.233 96.831 11.1591 97.2969 11.0909C97.7628 11.017 98.1009 10.9091 98.3111 10.767C98.5213 10.625 98.6264 10.4148 98.6264 10.1364V10.0852C98.6264 9.54545 98.456 9.12784 98.1151 8.83239C97.7798 8.53693 97.3026 8.3892 96.6832 8.3892C96.0298 8.3892 95.5099 8.53409 95.1236 8.82386C94.7372 9.10795 94.4815 9.46591 94.3565 9.89773L90.9986 9.625C91.169 8.82955 91.5043 8.14205 92.0043 7.5625C92.5043 6.97727 93.1491 6.52841 93.9389 6.21591C94.7344 5.89773 95.6548 5.73864 96.7003 5.73864C97.4276 5.73864 98.1236 5.82386 98.7884 5.99432C99.4588 6.16477 100.053 6.42898 100.57 6.78693C101.092 7.14489 101.504 7.60511 101.805 8.16761C102.107 8.72443 102.257 9.39205 102.257 10.1705V19H98.8139V17.1847H98.7116C98.5014 17.5938 98.2202 17.9545 97.8679 18.267C97.5156 18.5739 97.0923 18.8153 96.598 18.9915C96.1037 19.1619 95.5327 19.2472 94.8849 19.2472ZM95.9247 16.7415C96.4588 16.7415 96.9304 16.6364 97.3395 16.4261C97.7486 16.2102 98.0696 15.9205 98.3026 15.5568C98.5355 15.1932 98.652 14.7812 98.652 14.321V12.9318C98.5384 13.0057 98.3821 13.0739 98.1832 13.1364C97.9901 13.1932 97.7713 13.2472 97.527 13.2983C97.2827 13.3437 97.0384 13.3864 96.794 13.4261C96.5497 13.4602 96.3281 13.4915 96.1293 13.5199C95.7031 13.5824 95.331 13.6818 95.0128 13.8182C94.6946 13.9545 94.4474 14.1392 94.2713 14.3722C94.0952 14.5994 94.0071 14.8835 94.0071 15.2244C94.0071 15.7188 94.1861 16.0966 94.544 16.358C94.9077 16.6136 95.3679 16.7415 95.9247 16.7415ZM108.705 11.4318V19H105.074V5.90909H108.534V8.21875H108.688C108.977 7.45739 109.463 6.85511 110.145 6.41193C110.827 5.96307 111.653 5.73864 112.625 5.73864C113.534 5.73864 114.327 5.9375 115.003 6.33523C115.679 6.73295 116.205 7.30114 116.58 8.03977C116.955 8.77273 117.142 9.64773 117.142 10.6648V19H113.511V11.3125C113.517 10.5114 113.313 9.88636 112.898 9.4375C112.483 8.98295 111.912 8.75568 111.185 8.75568C110.696 8.75568 110.264 8.8608 109.889 9.07102C109.52 9.28125 109.23 9.58807 109.02 9.99148C108.815 10.3892 108.71 10.8693 108.705 11.4318ZM125.918 19.2557C124.577 19.2557 123.424 18.9716 122.458 18.4034C121.498 17.8295 120.759 17.0341 120.242 16.017C119.731 15 119.475 13.8295 119.475 12.5057C119.475 11.1648 119.734 9.98864 120.251 8.97727C120.773 7.96023 121.515 7.16761 122.475 6.59943C123.435 6.02557 124.577 5.73864 125.901 5.73864C127.043 5.73864 128.043 5.94602 128.901 6.36079C129.759 6.77557 130.438 7.35795 130.938 8.10795C131.438 8.85795 131.714 9.73864 131.765 10.75H128.339C128.242 10.0966 127.987 9.57102 127.572 9.1733C127.163 8.76989 126.626 8.56818 125.961 8.56818C125.398 8.56818 124.907 8.72159 124.487 9.02841C124.072 9.32955 123.748 9.76989 123.515 10.3494C123.282 10.929 123.165 11.6307 123.165 12.4545C123.165 13.2898 123.279 14 123.506 14.5852C123.739 15.1705 124.066 15.6165 124.487 15.9233C124.907 16.2301 125.398 16.3835 125.961 16.3835C126.376 16.3835 126.748 16.2983 127.077 16.1278C127.413 15.9574 127.688 15.7102 127.904 15.3864C128.126 15.0568 128.271 14.6619 128.339 14.2017H131.765C131.708 15.2017 131.435 16.0824 130.947 16.8438C130.464 17.5994 129.796 18.1903 128.944 18.6165C128.092 19.0426 127.083 19.2557 125.918 19.2557ZM140.055 19.2557C138.709 19.2557 137.55 18.983 136.578 18.4375C135.612 17.8864 134.868 17.108 134.345 16.1023C133.822 15.0909 133.561 13.8949 133.561 12.5142C133.561 11.1676 133.822 9.9858 134.345 8.96875C134.868 7.9517 135.604 7.15909 136.553 6.59091C137.507 6.02273 138.626 5.73864 139.911 5.73864C140.774 5.73864 141.578 5.87784 142.322 6.15625C143.072 6.42898 143.726 6.84091 144.283 7.39205C144.845 7.94318 145.283 8.63636 145.595 9.47159C145.908 10.3011 146.064 11.2727 146.064 12.3864V13.3835H135.01V11.1335H142.646C142.646 10.6108 142.533 10.1477 142.305 9.74432C142.078 9.34091 141.763 9.02557 141.359 8.7983C140.962 8.56534 140.499 8.44886 139.97 8.44886C139.419 8.44886 138.93 8.5767 138.504 8.83239C138.084 9.08239 137.754 9.42045 137.516 9.84659C137.277 10.267 137.155 10.7358 137.149 11.2528V13.392C137.149 14.0398 137.268 14.5994 137.507 15.071C137.751 15.5426 138.095 15.9062 138.538 16.1619C138.982 16.4176 139.507 16.5455 140.115 16.5455C140.518 16.5455 140.888 16.4886 141.223 16.375C141.558 16.2614 141.845 16.0909 142.084 15.8636C142.322 15.6364 142.504 15.358 142.629 15.0284L145.987 15.25C145.817 16.0568 145.467 16.7614 144.939 17.3636C144.416 17.9602 143.74 18.4261 142.911 18.7614C142.087 19.0909 141.135 19.2557 140.055 19.2557ZM165.63 7.1875C165.511 6.77273 165.343 6.40625 165.127 6.08807C164.911 5.7642 164.647 5.49148 164.335 5.26989C164.028 5.04261 163.675 4.86932 163.278 4.75C162.886 4.63068 162.451 4.57102 161.974 4.57102C161.082 4.57102 160.298 4.79261 159.621 5.23579C158.951 5.67898 158.428 6.32386 158.053 7.17045C157.678 8.01136 157.491 9.03977 157.491 10.2557C157.491 11.4716 157.675 12.5057 158.045 13.358C158.414 14.2102 158.937 14.8608 159.613 15.3097C160.289 15.7528 161.087 15.9744 162.008 15.9744C162.843 15.9744 163.556 15.8267 164.147 15.5312C164.744 15.2301 165.198 14.8068 165.511 14.2614C165.829 13.7159 165.988 13.071 165.988 12.3267L166.738 12.4375H162.238V9.65909H169.542V11.858C169.542 13.392 169.218 14.7102 168.57 15.8125C167.923 16.9091 167.031 17.7557 165.894 18.3523C164.758 18.9432 163.457 19.2386 161.991 19.2386C160.354 19.2386 158.917 18.8778 157.678 18.1562C156.44 17.429 155.474 16.3977 154.781 15.0625C154.093 13.7216 153.749 12.1307 153.749 10.2898C153.749 8.875 153.954 7.61364 154.363 6.50568C154.778 5.39205 155.357 4.44886 156.102 3.67614C156.846 2.90341 157.712 2.31534 158.701 1.91193C159.69 1.50852 160.761 1.30682 161.914 1.30682C162.903 1.30682 163.823 1.4517 164.675 1.74148C165.528 2.02557 166.283 2.42898 166.942 2.9517C167.607 3.47443 168.15 4.09659 168.57 4.81818C168.991 5.53409 169.261 6.32386 169.38 7.1875H165.63ZM172.246 19V5.90909H175.766V8.19318H175.902C176.141 7.38068 176.541 6.76705 177.104 6.35227C177.666 5.93182 178.314 5.72159 179.047 5.72159C179.229 5.72159 179.425 5.73295 179.635 5.75568C179.845 5.77841 180.03 5.80966 180.189 5.84943V9.07102C180.018 9.01989 179.783 8.97443 179.482 8.93466C179.18 8.89489 178.905 8.875 178.655 8.875C178.121 8.875 177.643 8.99148 177.223 9.22443C176.808 9.4517 176.479 9.76989 176.234 10.179C175.996 10.5881 175.876 11.0597 175.876 11.5938V19H172.246ZM187.371 19.2557C186.048 19.2557 184.903 18.9744 183.937 18.4119C182.977 17.8437 182.235 17.054 181.712 16.0426C181.19 15.0256 180.928 13.8466 180.928 12.5057C180.928 11.1534 181.19 9.97159 181.712 8.96023C182.235 7.94318 182.977 7.15341 183.937 6.59091C184.903 6.02273 186.048 5.73864 187.371 5.73864C188.695 5.73864 189.837 6.02273 190.798 6.59091C191.763 7.15341 192.508 7.94318 193.031 8.96023C193.553 9.97159 193.815 11.1534 193.815 12.5057C193.815 13.8466 193.553 15.0256 193.031 16.0426C192.508 17.054 191.763 17.8437 190.798 18.4119C189.837 18.9744 188.695 19.2557 187.371 19.2557ZM187.388 16.4432C187.991 16.4432 188.494 16.2727 188.897 15.9318C189.3 15.5852 189.604 15.1136 189.809 14.517C190.019 13.9205 190.124 13.2415 190.124 12.4801C190.124 11.7188 190.019 11.0398 189.809 10.4432C189.604 9.84659 189.3 9.375 188.897 9.02841C188.494 8.68182 187.991 8.50852 187.388 8.50852C186.781 8.50852 186.269 8.68182 185.854 9.02841C185.445 9.375 185.136 9.84659 184.925 10.4432C184.721 11.0398 184.619 11.7188 184.619 12.4801C184.619 13.2415 184.721 13.9205 184.925 14.517C185.136 15.1136 185.445 15.5852 185.854 15.9318C186.269 16.2727 186.781 16.4432 187.388 16.4432ZM204.57 13.4261V5.90909H208.201V19H204.715V16.6222H204.579C204.283 17.3892 203.792 18.0057 203.104 18.4716C202.423 18.9375 201.59 19.1705 200.607 19.1705C199.732 19.1705 198.962 18.9716 198.298 18.5739C197.633 18.1761 197.113 17.6108 196.738 16.8778C196.369 16.1449 196.181 15.267 196.175 14.2443V5.90909H199.806V13.5966C199.812 14.3693 200.019 14.9801 200.428 15.429C200.837 15.8778 201.386 16.1023 202.073 16.1023C202.511 16.1023 202.92 16.0028 203.3 15.804C203.681 15.5994 203.988 15.2983 204.221 14.9006C204.46 14.5028 204.576 14.0114 204.57 13.4261ZM211.105 23.9091V5.90909H214.685V8.10795H214.847C215.006 7.75568 215.236 7.39773 215.537 7.03409C215.844 6.66477 216.241 6.35795 216.73 6.11364C217.224 5.86364 217.838 5.73864 218.571 5.73864C219.526 5.73864 220.406 5.98864 221.213 6.48864C222.02 6.98295 222.665 7.73011 223.148 8.73011C223.631 9.72443 223.872 10.9716 223.872 12.4716C223.872 13.9318 223.636 15.1648 223.165 16.1705C222.699 17.1705 222.063 17.929 221.256 18.446C220.455 18.9574 219.557 19.2131 218.562 19.2131C217.858 19.2131 217.259 19.0966 216.764 18.8636C216.276 18.6307 215.875 18.3381 215.562 17.9858C215.25 17.6278 215.011 17.267 214.847 16.9034H214.736V23.9091H211.105ZM214.659 12.4545C214.659 13.233 214.767 13.9119 214.983 14.4915C215.199 15.071 215.511 15.5227 215.92 15.8466C216.33 16.1648 216.827 16.3239 217.412 16.3239C218.003 16.3239 218.503 16.1619 218.912 15.8381C219.321 15.5085 219.631 15.054 219.841 14.4744C220.057 13.8892 220.165 13.2159 220.165 12.4545C220.165 11.6989 220.06 11.0341 219.849 10.4602C219.639 9.88636 219.33 9.4375 218.92 9.11364C218.511 8.78977 218.009 8.62784 217.412 8.62784C216.821 8.62784 216.321 8.78409 215.912 9.09659C215.509 9.40909 215.199 9.85227 214.983 10.4261C214.767 11 214.659 11.6761 214.659 12.4545Z" fill="white"/>
</svg>
